<?xml version="1.0" encoding="utf-8"?>
<!-- Generator: Adobe Illustrator 24.0.1, SVG Export Plug-In . SVG Version: 6.00 Build 0)  -->
<svg version="1.1" id="レイヤー_1" xmlns="http://www.w3.org/2000/svg" xmlns:xlink="http://www.w3.org/1999/xlink" x="0px"
	 y="0px" viewBox="0 0 502.65 49.62" style="enable-background:new 0 0 502.65 49.62;" xml:space="preserve">
<style type="text/css">
	.st0{fill:#002B71;}
	.st1{fill:#E10915;}
	.st2{fill-rule:evenodd;clip-rule:evenodd;fill:#E10915;}
	.st3{fill-rule:evenodd;clip-rule:evenodd;fill:#002B71;}
	.st4{fill:#FFFFFF;}
	.st5{fill-rule:evenodd;clip-rule:evenodd;fill:#FFFFFF;}
</style>
<g>
	<g>
		<path class="st0" d="M1.79,38.74c0,1.54,1.2,1.79,2.71,1.79h12.18l12.24-19.91v13.75c0,1.44-0.51,2.47-1.86,2.47
			c-1.36,0-2,1.13-2,1.85c0,0.71,0.53,1.84,2.1,1.84h12.2l11.37-19.19v13.58c0,1.12-0.35,1.82-1.41,1.82
			c-0.94,0-1.84,0.83-1.84,1.75c0,1.08,0.54,2.09,2.21,2.09h12.23L81.83,9.12h27.76l4.59-7.8H75.11L58.87,27.37V9.04
			c0-1.85,0.84-2.87,1.95-3.41c1.13-0.53,1.91-0.92,1.91-2.39c0-0.83-0.79-1.9-2.56-1.9h-8.6L35.71,28.22V8.93
			c0-1.44,0.74-2.42,1.95-3c1.22-0.58,2.35-1.31,2.35-2.5c0-0.82-0.65-2.12-2.43-2.12h-8.03c0,0-19.2,31.32-20.46,33.06
			c-1.25,1.75-2.08,2.55-4.38,2.55C2.68,36.92,1.79,37.53,1.79,38.74z"/>
		<path class="st1" d="M107.6,26.99c0,7.5-6.19,13.59-13.83,13.59c-7.63,0-13.82-6.09-13.82-13.59c0-7.52,6.19-13.61,13.82-13.61
			C101.41,13.38,107.6,19.47,107.6,26.99z"/>
	</g>
	<path class="st2" d="M3.37,48.21l-1.3-3.3v2.74c0,0.25,0.1,0.38,0.39,0.38h0.12v0.18H1.34v-0.18h0.13c0.28,0,0.4-0.11,0.4-0.38
		v-3.04c-0.22-0.22-0.38-0.22-0.54-0.22v-0.18h1.18l1.19,3.01l1.05-3.01h1.38v0.18h-0.2c-0.29,0-0.39,0.11-0.39,0.38v2.88
		c0,0.25,0.1,0.38,0.39,0.38h0.2v0.18H4.35v-0.18h0.14c0.29,0,0.4-0.11,0.4-0.38v-3.29l-1.35,3.85H3.37z"/>
	<path class="st3" d="M9.49,46.84c-0.21,0.08-0.81,0.33-0.81,0.83c0,0.33,0.31,0.36,0.42,0.36c0.11,0,0.27-0.04,0.39-0.14V46.84z
		 M9.49,46c0-0.15-0.08-0.34-0.33-0.34c-0.31,0-0.33,0.23-0.33,0.32c-0.01,0.15-0.04,0.42-0.36,0.42c-0.22,0-0.35-0.15-0.35-0.32
		c0-0.14,0.09-0.3,0.26-0.4c0.2-0.13,0.63-0.16,0.84-0.16c0.83,0,0.84,0.42,0.85,0.66v1.42c0,0.26,0.04,0.39,0.22,0.39
		c0.09,0,0.13-0.03,0.17-0.06c0.01-0.01,0.05-0.04,0.07-0.04c0.01,0,0.03,0.02,0.03,0.04c0,0.06-0.23,0.38-0.58,0.38
		c-0.04,0-0.33,0-0.47-0.28c-0.15,0.11-0.39,0.28-0.8,0.28c-0.5,0-0.68-0.32-0.68-0.56c0-0.12,0.03-0.26,0.19-0.44
		c0.36-0.41,0.91-0.54,1.27-0.63V46z"/>
	<path class="st3" d="M13.79,46.4l0.66,1.2c0.23,0.4,0.41,0.41,0.55,0.43h0.05v0.18H13.7v-0.18c0.06,0,0.2,0,0.2-0.15
		c0-0.05-0.02-0.1-0.05-0.16l-0.47-0.86l-0.23,0.26v0.64c0,0.16,0.08,0.27,0.26,0.27h0.09v0.18h-1.27v-0.18h0.09
		c0.16,0,0.25-0.1,0.25-0.27v-3.12c0-0.14-0.04-0.25-0.17-0.25c-0.07,0-0.15,0.02-0.19,0.03l-0.04-0.15
		c0.42-0.06,0.73-0.12,0.8-0.14l0.14-0.02c0.02,0,0.04,0.02,0.04,0.07v2.66l0.68-0.75c0.04-0.05,0.08-0.11,0.08-0.18
		c0-0.08-0.05-0.11-0.15-0.11h-0.27v-0.18h1.45v0.18h-0.21c-0.28,0-0.54,0.16-0.72,0.37L13.79,46.4z"/>
	<path class="st3" d="M19.18,47.5c-0.18,0.23-0.42,0.53-0.83,0.53c-0.5,0-0.86-0.45-0.84-1.26h1.69c-0.01-0.18-0.04-0.6-0.41-0.97
		c-0.12-0.13-0.35-0.28-0.66-0.28c-0.64,0-1.22,0.63-1.22,1.45c0,0.81,0.57,1.34,1.25,1.34c0.67,0,0.97-0.48,1.13-0.72L19.18,47.5z
		 M17.52,46.59c0.03-0.26,0.1-0.9,0.61-0.9c0.45,0,0.46,0.58,0.47,0.9H17.52z"/>
	<path class="st3" d="M24.36,45.8v-0.18c0.13-0.01,0.37-0.02,0.58-0.23c0.23-0.23,0.25-0.51,0.25-0.71h0.18v0.94h0.77v0.18h-0.77
		v1.83c0,0.28,0.16,0.37,0.32,0.37c0.03,0,0.21,0,0.42-0.2l0.09,0.1c-0.16,0.17-0.4,0.41-0.78,0.41c-0.39,0-0.62-0.26-0.62-0.68
		V45.8H24.36z"/>
	<path class="st3" d="M27.9,48.03v0.18h1.31v-0.18c-0.15,0-0.38,0-0.38-0.29v-1.53c0.08-0.1,0.3-0.35,0.58-0.35
		c0.19,0,0.4,0.13,0.4,0.46v1.89h0.97v-0.18h-0.13c-0.17,0-0.25-0.12-0.25-0.28v-1.43c0-0.48-0.29-0.8-0.68-0.8
		c-0.45,0-0.77,0.34-0.89,0.47v-1.82c0-0.02-0.01-0.06-0.05-0.06l-0.93,0.18l0.03,0.14c0.03-0.01,0.12-0.02,0.18-0.02
		c0.16,0,0.19,0.13,0.19,0.2v3.13c0,0.14-0.01,0.29-0.26,0.29H27.9z"/>
	<path class="st3" d="M34.88,47.5c-0.19,0.23-0.43,0.53-0.84,0.53c-0.5,0-0.86-0.45-0.83-1.26h1.68c-0.01-0.18-0.04-0.6-0.4-0.97
		c-0.13-0.13-0.35-0.28-0.67-0.28c-0.64,0-1.22,0.63-1.22,1.45c0,0.81,0.57,1.34,1.25,1.34s0.98-0.48,1.13-0.72L34.88,47.5z
		 M33.22,46.59c0.02-0.26,0.1-0.9,0.6-0.9c0.45,0,0.47,0.58,0.47,0.9H33.22z"/>
	<path class="st2" d="M43.27,44.21l0.36,0.95l-0.15,0.07c-0.18-0.28-0.54-0.84-1.38-0.84h-0.22c-0.3,0-0.5,0.17-0.5,0.47v1.2h0.5
		c0.36,0,0.63-0.26,0.63-0.54v-0.14h0.18v1.56h-0.18v-0.16c0-0.23-0.2-0.54-0.55-0.54h-0.58v1.41c0,0.25,0.1,0.38,0.4,0.38h0.25
		v0.18h-1.91v-0.18h0.22c0.28,0,0.4-0.11,0.4-0.38v-2.82c0-0.24-0.14-0.44-0.44-0.44h-0.18v-0.18H43.27z"/>
	<path class="st3" d="M45.33,45.71c0.09-0.02,0.9-0.19,0.93-0.19c0.04,0,0.04,0.03,0.04,0.06v1.84c0,0.28,0.12,0.51,0.45,0.51
		c0.25,0,0.37-0.15,0.5-0.29v-1.62c0-0.12-0.05-0.22-0.17-0.22c-0.07,0-0.15,0.02-0.24,0.05l-0.04-0.14l0.85-0.17
		c0.03-0.01,0.1-0.02,0.13-0.02c0.03,0,0.04,0.01,0.04,0.06v2.17c0,0.17,0.08,0.28,0.25,0.28h0.16v0.18h-0.98V47.9
		c-0.1,0.11-0.35,0.41-0.75,0.41c-0.34,0-0.77-0.23-0.77-0.85v-1.41c0-0.12-0.05-0.24-0.19-0.24c-0.06,0-0.11,0.01-0.17,0.03
		L45.33,45.71z"/>
	<path class="st3" d="M50.4,45.8v1.83c0,0.42,0.24,0.68,0.62,0.68s0.62-0.24,0.79-0.41l-0.09-0.1C51.5,48,51.33,48,51.29,48
		c-0.16,0-0.32-0.09-0.32-0.37V45.8h0.77v-0.18h-0.77v-0.94H50.8c-0.01,0.2-0.03,0.48-0.26,0.71c-0.21,0.21-0.45,0.22-0.58,0.23
		v0.18H50.4z"/>
	<path class="st3" d="M53.49,45.71c0.09-0.02,0.9-0.19,0.93-0.19c0.04,0,0.04,0.03,0.04,0.06v1.84c0,0.28,0.12,0.51,0.44,0.51
		c0.25,0,0.38-0.15,0.5-0.29v-1.62c0-0.12-0.04-0.22-0.17-0.22c-0.06,0-0.14,0.02-0.23,0.05l-0.05-0.14l0.86-0.17
		c0.02-0.01,0.1-0.02,0.13-0.02c0.02,0,0.04,0.01,0.04,0.06v2.17c0,0.17,0.08,0.28,0.25,0.28h0.16v0.18H55.4V47.9
		c-0.1,0.11-0.35,0.41-0.75,0.41c-0.33,0-0.77-0.23-0.77-0.85v-1.41c0-0.12-0.04-0.24-0.19-0.24c-0.06,0-0.1,0.01-0.16,0.03
		L53.49,45.71z"/>
	<path class="st3" d="M59.23,46.04c0.14-0.18,0.4-0.52,0.94-0.52c0.27,0,0.5,0.11,0.5,0.4c0,0.21-0.12,0.4-0.39,0.4
		c-0.19,0-0.37-0.1-0.38-0.33c-0.01-0.09-0.01-0.13-0.1-0.13c-0.18,0-0.53,0.24-0.57,1.04v0.75c0,0.25,0.1,0.38,0.4,0.38h0.15v0.18
		h-1.64v-0.18h0.1c0.28,0,0.4-0.11,0.4-0.38v-1.44c0-0.27-0.04-0.35-0.23-0.35c-0.11,0-0.17,0.02-0.22,0.03l-0.05-0.11l0.94-0.24
		l0.11-0.02c0.03,0,0.04,0.03,0.04,0.08V46.04z"/>
	<path class="st3" d="M64.71,47.5c-0.18,0.23-0.42,0.53-0.83,0.53c-0.5,0-0.87-0.45-0.84-1.26h1.69c-0.01-0.18-0.04-0.6-0.41-0.97
		c-0.13-0.13-0.35-0.28-0.66-0.28c-0.64,0-1.23,0.63-1.23,1.45c0,0.81,0.58,1.34,1.26,1.34c0.67,0,0.97-0.48,1.13-0.72L64.71,47.5z
		 M63.05,46.59c0.03-0.26,0.1-0.9,0.61-0.9c0.45,0,0.46,0.58,0.47,0.9H63.05z"/>
</g>
<g>
	<g>
		<path class="st4" d="M352.43,34.8c-0.7-2.97-2.16-8.64-2.16-8.64h-4.04l2.3,9.59h-21.88c2.11-3.6,5.45-9.31,5.98-10.3
			c1.02-1.93,1.36-3.5,1.36-5.62V6.53h-3.9v13.76c0,1.2-0.35,2.4-1.18,3.97c-0.84,1.56-6.51,10.41-6.97,10.87
			c-0.4,0.39-0.99,0.57-1.17,0.62h-0.09v0.02v2.95v0.9h28.34C351.67,39.62,353.13,37.78,352.43,34.8z"/>
		<path class="st4" d="M300.02,35.75c1.61-1.85,3.43-4.8,3.43-8.57V10.4h12.54V6.53h-29.4v3.87h12.82v15.83
			c0,2.98-1.29,9.27-9.42,9.52h-5.07v3.87h32.74v-3.87H300.02z"/>
		<path class="st4" d="M426.08,23.39V9.48c0-0.92-0.74-2.95-3.53-2.95h-26.29v3.87h25.55v12.17c0,0-3.18,5.79-5.02,8.58
			c-1.94,2.94-4.55,4.6-8.64,4.6h-11.89v3.87h12.19c4.67,0,8.71-1.57,11.15-5.43C421.16,31.7,426.08,23.39,426.08,23.39z"/>
		<path class="st4" d="M375.27,35.75c1.6-1.85,3.43-4.8,3.43-8.57V10.4h12.54V6.53h-29.4v3.87h12.82v15.83
			c0,2.98-1.29,9.27-9.43,9.52h-5.06v3.87h32.74v-3.87H375.27z"/>
		<path class="st4" d="M357.8,22.66c0,1.38-1.12,2.49-2.51,2.49c-1.39,0-2.52-1.11-2.52-2.49c0-1.37,1.13-2.49,2.52-2.49
			C356.68,20.17,357.8,21.29,357.8,22.66z"/>
		<g>
			<path class="st4" d="M480.75,28.24h20.58v-3.88h-35.4v3.88h10.97v1.52c-1.4,0.92-7.34,5.21-7.99,5.57
				c-0.43,0.25-1.23,0.38-1.61,0.42h-0.2v0.02v2.95v0.9h29.44c2.65,0,3.44-2.53,2.19-4.61c-1.82-3.01-2.79-4.42-2.79-4.42h-4.6
				l3.21,5.16H475.1c1.75-1.38,3.57-2.82,4.17-3.32C480.57,31.36,480.73,30.74,480.75,28.24z"/>
			<rect x="470.25" y="17.59" class="st4" width="26.76" height="3.88"/>
			<path class="st4" d="M487.17,11.28c0.95,0.54,14.07,8.46,14.07,8.46v-4.31c0,0-11.67-7.03-13.1-7.79
				c-2.09-1.11-6.6-1.29-9.06,0.05c-1.59,0.86-13.01,7.21-13.01,7.21v4.29c0,0,11.94-6.85,14.08-8
				C482.29,10.03,485.08,10.08,487.17,11.28z"/>
		</g>
		<path class="st5" d="M451.88,16.54h-10.31l-1.04-3.92h12.38L451.88,16.54z M459.89,20.02v8.28c-1.71-1.85-3.52-3.78-3.95-4.25
			v-4.03H459.89z M441.42,25.06c-0.12,0-0.23,0.02-0.35,0.04v-5.08h11.08v5.06L452,25.06H441.42z M451.15,32.71h-8.89v-4.43h8.89
			V32.71z M433.13,28.5v-8.48h4.16v4.03C436.83,24.53,434.92,26.6,433.13,28.5z M464.03,12.62V8.75H448.7V6.81h-3.9v1.94h-15.33
			v3.87h7.14l1.04,3.92h-5.06c-2.28,0-3.58,1.1-3.58,3.63c0,2.15,0.23,19.45,0.23,19.45h3.89v-5.58l5.13-5.49v4.25
			c0,1.72,1.41,3.14,3.16,3.14H452c1.74,0,3.15-1.42,3.15-3.14v-4.05l4.74,5.09v2.63h-3.57v3.49h3.81c2.74,0,3.67-1.95,3.67-4.63
			V20.59c0-2.62-1.54-4.05-3.99-4.05h-4.01l1.04-3.92H464.03z"/>
	</g>
	<path class="st5" d="M139.03,26.19c0,0-1.46-2.22-2.1-4.09v19.25h-3.38V23.54c-0.46,2.62-1.32,5.62-2.99,8.38l-2.49-3.01
		c2.95-3.74,4.55-8.58,4.98-10.24h-4.13v-3.18h4.63V9.56h3.38v5.93h3.95v3.18h-3.59c1.35,2.51,3.74,4.45,3.74,4.45L139.03,26.19z
		 M157.62,38.42c-2.85-3.43-4.81-7.49-5.66-10.39v13.32h-3.38V27.96c-1.14,3.15-3.53,7.53-7.02,10.46l-2.31-2.97
		c3.66-2.58,6.16-6.43,7.19-9.01h-5.31v-3.11h7.45V17.9h-3.56c-0.65,2.01-1.68,4.41-1.68,4.41l-2.81-2.19c0,0,2.14-3.96,3.02-9.75
		l3.14,0.78c-0.32,1.27-0.64,2.72-1,3.78h2.89V9.56h3.38v5.37h6.3v2.97h-6.3v5.43h7.51v3.11h-5.45c0.82,2.23,2.89,5.93,6.09,8.8
		L157.62,38.42z"/>
	<path class="st5" d="M182.66,36.93c0,0-7.16,1.88-15.2,2.9l-1-3.25c2.24-0.21,4.41-0.53,6.62-0.92v-8.02h-5.34v-3.18h14.28v3.18
		h-5.45v7.42c3.78-0.74,6.34-1.48,6.34-1.48L182.66,36.93z M189.07,38.24c-4.06-6.36-4.77-13.21-5.41-18.44h-17.73v-3.18h17.48
		c-0.14-2.22-0.22-4.55-0.22-7.06h3.6c0,2.58,0.18,4.91,0.18,7.06h9.68v3.18h-9.43c0.68,7.24,1.96,11.41,4.45,15.93
		c1.1,2.02,1.39,1.66,2.95-4.02l2.78,3.03C194.87,42.66,191.46,41.98,189.07,38.24z M192.92,16.16c0,0-1.93-2.68-4.38-4.66l2.38-1.8
		c2.53,2.05,4.52,4.42,4.52,4.42L192.92,16.16z"/>
	<path class="st5" d="M230.6,41.31c-0.86-1.09-1.64-2.08-2.46-2.96c-6.37,1.13-14.56,1.76-22.25,2.08l-0.64-3.25
		c1.1,0,2.03-0.07,3.02-0.07c2.64-2.44,4.56-5.4,5.56-7.21h-9.08v-3.07h28.23v3.07h-14.99c-0.92,1.95-2.81,4.7-5.05,7.03
		c6.44-0.32,10.25-0.84,12.74-1.23c-1.56-1.77-3.34-3.15-3.34-3.15l2.85-1.9c0,0,3.7,3.07,7.9,7.77L230.6,41.31z M210.12,23.09
		v-3.04h18.41v3.04H210.12z M233.55,21.71c-5.84-2.23-12.25-6.36-14.6-9.11c-2.38,3.07-8.9,7.48-14.7,9.53l-1.6-3.46
		c7.72-2.47,13.21-6.67,14.74-9.25h2.81c1.82,2.33,6.59,5.86,14.92,8.9L233.55,21.71z"/>
	<path class="st5" d="M253.72,29.94c-1.5-1.31-2.74-2.86-3.53-3.82v15.23h-3.42V27.33c-1.14,1.09-3.02,2.61-5.02,3.7l-1.53-3.07
		c8.51-4.59,11.04-9.82,11.04-9.82h-9.15v-3.18h4.66v-5.4h3.42v5.4h4.63v3.14c0,0-1.1,2.41-3.74,5.48c0.96,0.96,2.85,2.19,4.74,3.43
		L253.72,29.94z M253.79,39.65v-3.18h7.9V23.48h-6.09V20.3h6.09V9.52h3.42V20.3h6.48v3.18h-6.48v12.99h7.19v3.18H253.79z"/>
</g>
</svg>
