<svg version="1.1" id="レイヤー_1" xmlns="http://www.w3.org/2000/svg" x="0" y="0" viewBox="0 0 502.65 49.62" xml:space="preserve"><style>.st2,.st3{fill-rule:evenodd;clip-rule:evenodd;fill:#e10915}.st3{fill:#002b71}.st4{fill:#fff}</style><path d="M1.79 38.74c0 1.54 1.2 1.79 2.71 1.79h12.18l12.24-19.91v13.75c0 1.44-.51 2.47-1.86 2.47-1.36 0-2 1.13-2 1.85 0 .71.53 1.84 2.1 1.84h12.2l11.37-19.19v13.58c0 1.12-.35 1.82-1.41 1.82-.94 0-1.84.83-1.84 1.75 0 1.08.54 2.09 2.21 2.09h12.23L81.83 9.12h27.76l4.59-7.8H75.11L58.87 27.37V9.04c0-1.85.84-2.87 1.95-3.41 1.13-.53 1.91-.92 1.91-2.39 0-.83-.79-1.9-2.56-1.9h-8.6L35.71 28.22V8.93c0-1.44.74-2.42 1.95-3 1.22-.58 2.35-1.31 2.35-2.5 0-.82-.65-2.12-2.43-2.12h-8.03S10.35 32.63 9.09 34.37c-1.25 1.75-2.08 2.55-4.38 2.55-2.03 0-2.92.61-2.92 1.82z" fill="#002b71"/><path d="M107.6 26.99c0 7.5-6.19 13.59-13.83 13.59-7.63 0-13.82-6.09-13.82-13.59 0-7.52 6.19-13.61 13.82-13.61 7.64 0 13.83 6.09 13.83 13.61z" fill="#e10915"/><path class="st2" d="M3.37 48.21l-1.3-3.3v2.74c0 .25.1.38.39.38h.12v.18H1.34v-.18h.13c.28 0 .4-.11.4-.38v-3.04c-.22-.22-.38-.22-.54-.22v-.18h1.18l1.19 3.01 1.05-3.01h1.38v.18h-.2c-.29 0-.39.11-.39.38v2.88c0 .25.1.38.39.38h.2v.18H4.35v-.18h.14c.29 0 .4-.11.4-.38v-3.29l-1.35 3.85h-.17z"/><path class="st3" d="M9.49 46.84c-.21.08-.81.33-.81.83 0 .33.31.36.42.36.11 0 .27-.04.39-.14v-1.05zm0-.84c0-.15-.08-.34-.33-.34-.31 0-.33.23-.33.32-.01.15-.04.42-.36.42-.22 0-.35-.15-.35-.32 0-.14.09-.3.26-.4.2-.13.63-.16.84-.16.83 0 .84.42.85.66v1.42c0 .26.04.39.22.39.09 0 .13-.03.17-.06.01-.01.05-.04.07-.04.01 0 .03.02.03.04 0 .06-.23.38-.58.38-.04 0-.33 0-.47-.28-.15.11-.39.28-.8.28-.5 0-.68-.32-.68-.56 0-.12.03-.26.19-.44.36-.41.91-.54 1.27-.63V46zm4.3.4l.66 1.2c.23.4.41.41.55.43h.05v.18H13.7v-.18c.06 0 .2 0 .2-.15 0-.05-.02-.1-.05-.16l-.47-.86-.23.26v.64c0 .16.08.27.26.27h.09v.18h-1.27v-.18h.09c.16 0 .25-.1.25-.27v-3.12c0-.14-.04-.25-.17-.25-.07 0-.15.02-.19.03l-.04-.15c.42-.06.73-.12.8-.14l.14-.02c.02 0 .04.02.04.07v2.66l.68-.75c.04-.05.08-.11.08-.18 0-.08-.05-.11-.15-.11h-.27v-.18h1.45v.18h-.21c-.28 0-.54.16-.72.37l-.22.23zm5.39 1.1c-.18.23-.42.53-.83.53-.5 0-.86-.45-.84-1.26h1.69c-.01-.18-.04-.6-.41-.97a.906.906 0 00-.66-.28c-.64 0-1.22.63-1.22 1.45 0 .81.57 1.34 1.25 1.34.67 0 .97-.48 1.13-.72l-.11-.09zm-1.66-.91c.03-.26.1-.9.61-.9.45 0 .46.58.47.9h-1.08zm6.84-.79v-.18c.13-.01.37-.02.58-.23.23-.23.25-.51.25-.71h.18v.94h.77v.18h-.77v1.83c0 .28.16.37.32.37.03 0 .21 0 .42-.2l.09.1c-.16.17-.4.41-.78.41-.39 0-.62-.26-.62-.68V45.8h-.44zm3.54 2.23v.18h1.31v-.18c-.15 0-.38 0-.38-.29v-1.53c.08-.1.3-.35.58-.35.19 0 .4.13.4.46v1.89h.97v-.18h-.13c-.17 0-.25-.12-.25-.28v-1.43c0-.48-.29-.8-.68-.8-.45 0-.77.34-.89.47v-1.82c0-.02-.01-.06-.05-.06l-.93.18.03.14c.03-.01.12-.02.18-.02.16 0 .19.13.19.2v3.13c0 .14-.01.29-.26.29h-.09zm6.98-.53c-.19.23-.43.53-.84.53-.5 0-.86-.45-.83-1.26h1.68c-.01-.18-.04-.6-.4-.97a.932.932 0 00-.67-.28c-.64 0-1.22.63-1.22 1.45 0 .81.57 1.34 1.25 1.34s.98-.48 1.13-.72l-.1-.09zm-1.66-.91c.02-.26.1-.9.6-.9.45 0 .47.58.47.9h-1.07z"/><path class="st2" d="M43.27 44.21l.36.95-.15.07c-.18-.28-.54-.84-1.38-.84h-.22c-.3 0-.5.17-.5.47v1.2h.5c.36 0 .63-.26.63-.54v-.14h.18v1.56h-.18v-.16c0-.23-.2-.54-.55-.54h-.58v1.41c0 .25.1.38.4.38h.25v.18h-1.91v-.18h.22c.28 0 .4-.11.4-.38v-2.82c0-.24-.14-.44-.44-.44h-.18v-.18h3.15z"/><path class="st3" d="M45.33 45.71c.09-.02.9-.19.93-.19.04 0 .04.03.04.06v1.84c0 .28.12.51.45.51.25 0 .37-.15.5-.29v-1.62c0-.12-.05-.22-.17-.22-.07 0-.15.02-.24.05l-.04-.14.85-.17c.03-.01.1-.02.13-.02s.04.01.04.06v2.17c0 .17.08.28.25.28h.16v.18h-.98v-.31c-.1.11-.35.41-.75.41-.34 0-.77-.23-.77-.85v-1.41c0-.12-.05-.24-.19-.24-.06 0-.11.01-.17.03l-.04-.13zm5.07.09v1.83c0 .42.24.68.62.68s.62-.24.79-.41l-.09-.1c-.22.2-.39.2-.43.2-.16 0-.32-.09-.32-.37V45.8h.77v-.18h-.77v-.94h-.17c-.01.2-.03.48-.26.71-.21.21-.45.22-.58.23v.18h.44zm3.09-.09c.09-.02.9-.19.93-.19.04 0 .04.03.04.06v1.84c0 .28.12.51.44.51.25 0 .38-.15.5-.29v-1.62c0-.12-.04-.22-.17-.22-.06 0-.14.02-.23.05l-.05-.14.86-.17c.02-.01.1-.02.13-.02.02 0 .04.01.04.06v2.17c0 .17.08.28.25.28h.16v.18h-.99v-.31c-.1.11-.35.41-.75.41-.33 0-.77-.23-.77-.85v-1.41c0-.12-.04-.24-.19-.24-.06 0-.1.01-.16.03l-.04-.13zm5.74.33c.14-.18.4-.52.94-.52.27 0 .5.11.5.4 0 .21-.12.4-.39.4-.19 0-.37-.1-.38-.33-.01-.09-.01-.13-.1-.13-.18 0-.53.24-.57 1.04v.75c0 .25.1.38.4.38h.15v.18h-1.64v-.18h.1c.28 0 .4-.11.4-.38v-1.44c0-.27-.04-.35-.23-.35-.11 0-.17.02-.22.03l-.05-.11.94-.24.11-.02c.03 0 .04.03.04.08v.44zm5.48 1.46c-.18.23-.42.53-.83.53-.5 0-.87-.45-.84-1.26h1.69c-.01-.18-.04-.6-.41-.97a.925.925 0 00-.66-.28c-.64 0-1.23.63-1.23 1.45 0 .81.58 1.34 1.26 1.34.67 0 .97-.48 1.13-.72l-.11-.09zm-1.66-.91c.03-.26.1-.9.61-.9.45 0 .46.58.47.9h-1.08z"/><path class="st4" d="M352.43 34.8c-.7-2.97-2.16-8.64-2.16-8.64h-4.04l2.3 9.59h-21.88c2.11-3.6 5.45-9.31 5.98-10.3 1.02-1.93 1.36-3.5 1.36-5.62V6.53h-3.9v13.76c0 1.2-.35 2.4-1.18 3.97-.84 1.56-6.51 10.41-6.97 10.87-.4.39-.99.57-1.17.62h-.09v3.87h28.34c2.65 0 4.11-1.84 3.41-4.82zm-52.41.95c1.61-1.85 3.43-4.8 3.43-8.57V10.4h12.54V6.53h-29.4v3.87h12.82v15.83c0 2.98-1.29 9.27-9.42 9.52h-5.07v3.87h32.74v-3.87h-17.64zm126.06-12.36V9.48c0-.92-.74-2.95-3.53-2.95h-26.29v3.87h25.55v12.17s-3.18 5.79-5.02 8.58c-1.94 2.94-4.55 4.6-8.64 4.6h-11.89v3.87h12.19c4.67 0 8.71-1.57 11.15-5.43 1.56-2.49 6.48-10.8 6.48-10.8zm-50.81 12.36c1.6-1.85 3.43-4.8 3.43-8.57V10.4h12.54V6.53h-29.4v3.87h12.82v15.83c0 2.98-1.29 9.27-9.43 9.52h-5.06v3.87h32.74v-3.87h-17.64zM357.8 22.66c0 1.38-1.12 2.49-2.51 2.49-1.39 0-2.52-1.11-2.52-2.49 0-1.37 1.13-2.49 2.52-2.49 1.39 0 2.51 1.12 2.51 2.49zm122.95 5.58h20.58v-3.88h-35.4v3.88h10.97v1.52c-1.4.92-7.34 5.21-7.99 5.57-.43.25-1.23.38-1.61.42h-.2v3.87h29.44c2.65 0 3.44-2.53 2.19-4.61-1.82-3.01-2.79-4.42-2.79-4.42h-4.6l3.21 5.16H475.1c1.75-1.38 3.57-2.82 4.17-3.32 1.3-1.07 1.46-1.69 1.48-4.19zm-10.5-10.65h26.76v3.88h-26.76z"/><path class="st4" d="M487.17 11.28c.95.54 14.07 8.46 14.07 8.46v-4.31s-11.67-7.03-13.1-7.79c-2.09-1.11-6.6-1.29-9.06.05-1.59.86-13.01 7.21-13.01 7.21v4.29s11.94-6.85 14.08-8c2.14-1.16 4.93-1.11 7.02.09z"/><path d="M451.88 16.54h-10.31l-1.04-3.92h12.38l-1.03 3.92zm8.01 3.48v8.28c-1.71-1.85-3.52-3.78-3.95-4.25v-4.03h3.95zm-18.47 5.04c-.12 0-.23.02-.35.04v-5.08h11.08v5.06l-.15-.02h-10.58zm9.73 7.65h-8.89v-4.43h8.89v4.43zm-18.02-4.21v-8.48h4.16v4.03c-.46.48-2.37 2.55-4.16 4.45zm30.9-15.88V8.75H448.7V6.81h-3.9v1.94h-15.33v3.87h7.14l1.04 3.92h-5.06c-2.28 0-3.58 1.1-3.58 3.63 0 2.15.23 19.45.23 19.45h3.89v-5.58l5.13-5.49v4.25c0 1.72 1.41 3.14 3.16 3.14H452c1.74 0 3.15-1.42 3.15-3.14v-4.05l4.74 5.09v2.63h-3.57v3.49h3.81c2.74 0 3.67-1.95 3.67-4.63V20.59c0-2.62-1.54-4.05-3.99-4.05h-4.01l1.04-3.92h7.19zm-325 13.57s-1.46-2.22-2.1-4.09v19.25h-3.38V23.54c-.46 2.62-1.32 5.62-2.99 8.38l-2.49-3.01c2.95-3.74 4.55-8.58 4.98-10.24h-4.13v-3.18h4.63V9.56h3.38v5.93h3.95v3.18h-3.59c1.35 2.51 3.74 4.45 3.74 4.45l-2 3.07zm18.59 12.23c-2.85-3.43-4.81-7.49-5.66-10.39v13.32h-3.38V27.96c-1.14 3.15-3.53 7.53-7.02 10.46l-2.31-2.97c3.66-2.58 6.16-6.43 7.19-9.01h-5.31v-3.11h7.45V17.9h-3.56c-.65 2.01-1.68 4.41-1.68 4.41l-2.81-2.19s2.14-3.96 3.02-9.75l3.14.78c-.32 1.27-.64 2.72-1 3.78h2.89V9.56h3.38v5.37h6.3v2.97h-6.3v5.43h7.51v3.11h-5.45c.82 2.23 2.89 5.93 6.09 8.8l-2.49 3.18zm25.04-1.49s-7.16 1.88-15.2 2.9l-1-3.25c2.24-.21 4.41-.53 6.62-.92v-8.02h-5.34v-3.18h14.28v3.18h-5.45v7.42c3.78-.74 6.34-1.48 6.34-1.48l-.25 3.35zm6.41 1.31c-4.06-6.36-4.77-13.21-5.41-18.44h-17.73v-3.18h17.48c-.14-2.22-.22-4.55-.22-7.06h3.6c0 2.58.18 4.91.18 7.06h9.68v3.18h-9.43c.68 7.24 1.96 11.41 4.45 15.93 1.1 2.02 1.39 1.66 2.95-4.02l2.78 3.03c-2.53 7.92-5.94 7.24-8.33 3.5zm3.85-22.08s-1.93-2.68-4.38-4.66l2.38-1.8c2.53 2.05 4.52 4.42 4.52 4.42l-2.52 2.04zm37.68 25.15c-.86-1.09-1.64-2.08-2.46-2.96-6.37 1.13-14.56 1.76-22.25 2.08l-.64-3.25c1.1 0 2.03-.07 3.02-.07 2.64-2.44 4.56-5.4 5.56-7.21h-9.08v-3.07h28.23v3.07h-14.99c-.92 1.95-2.81 4.7-5.05 7.03 6.44-.32 10.25-.84 12.74-1.23-1.56-1.77-3.34-3.15-3.34-3.15l2.85-1.9s3.7 3.07 7.9 7.77l-2.49 2.89zm-20.48-18.22v-3.04h18.41v3.04h-18.41zm23.43-1.38c-5.84-2.23-12.25-6.36-14.6-9.11-2.38 3.07-8.9 7.48-14.7 9.53l-1.6-3.46c7.72-2.47 13.21-6.67 14.74-9.25h2.81c1.82 2.33 6.59 5.86 14.92 8.9l-1.57 3.39zm20.17 8.23c-1.5-1.31-2.74-2.86-3.53-3.82v15.23h-3.42V27.33c-1.14 1.09-3.02 2.61-5.02 3.7l-1.53-3.07c8.51-4.59 11.04-9.82 11.04-9.82h-9.15v-3.18h4.66v-5.4h3.42v5.4h4.63v3.14s-1.1 2.41-3.74 5.48c.96.96 2.85 2.19 4.74 3.43l-2.1 2.93zm.07 9.71v-3.18h7.9V23.48h-6.09V20.3h6.09V9.52h3.42V20.3h6.48v3.18h-6.48v12.99h7.19v3.18h-18.51z" fill-rule="evenodd" clip-rule="evenodd" fill="#fff"/></svg>